<!-- icon666.com - MILLIONS vector ICONS FREE --><svg id="perspective" enable-background="new 0 0 512 512" viewBox="0 0 512 512" xmlns="http://www.w3.org/2000/svg"><path d="m484.1 389.7-24.6-9.9c7.2-10.5 11.1-23 11.1-35.7v-176.2c0-10.5-2.6-20.9-7.7-30.2-.5-1.7-1.4-3.2-2.7-4.4-5.7-8.6-13.3-15.7-22.4-20.7l-164.7-90.4c-18.9-10.4-41.8-10.4-60.7 0l-164.7 90.4c-9 5-16.7 12.1-22.4 20.7-1.3 1.2-2.2 2.7-2.7 4.4-5.1 9.3-7.7 19.6-7.7 30.2v176.2c0 23 12.5 44.2 32.7 55.3l164.7 90.4c18.9 10.4 41.8 10.4 60.7 0l91.3-50.1 20.3 45.2c3.4 7.5 11 12.3 19.2 12.2h.2c8.3 0 15.9-4.9 19.1-12.6l17.1-40.4c.1-.2.3-.3.4-.3l42.8-16.2c10.5-3.8 15.9-15.3 12.1-25.8-1.7-5.7-6-10-11.4-12.1zm-7.5 19.1-42.8 16.2c-5.3 2-9.5 6-11.8 11.2l-17.1 40.4c-.2.4-.8.4-.9.4-.2 0-.8 0-1-.4l-53.3-118.5c.4-.4 1-.5 1.5-.3l125.4 50.4c.3.1.4.2.4.3-.1.1-.3.2-.4.3zm-213.1-369 164.7 90.4c3.6 2 6.9 4.4 9.7 7.3l-195.1 107.1-195.2-107.1c2.9-2.9 6.2-5.4 9.7-7.3l164.7-90.4c13-7.1 28.6-7.1 41.5 0zm-228.5 128.1c0-4.5.7-9 2.1-13.3l195.6 107.4v214.4c-3.7-.9-7.3-2.3-10.7-4.1l-164.7-90.5c-13.8-7.6-22.4-22-22.3-37.8zm217.8 308.5v-214.5l195.6-107.4c1.4 4.3 2.1 8.8 2.1 13.3v176.2c0 10.3-3.7 20.2-10.3 28l-81.5-32.8c-8.1-3.3-17.3-1.3-23.3 4.9-5.8 5.8-7.3 14.6-3.9 22l24.8 55.1-92.7 50.9c-3.5 2-7.1 3.4-10.8 4.3z" fill="#000000" style="fill: rgb(90, 31, 160);"></path></svg>