<!-- icon666.com - MILLIONS vector ICONS FREE --><svg id="Image" viewBox="0 0 64 64" xmlns="http://www.w3.org/2000/svg"><path d="m57 35c-.57 0-1.11.124-1.601.34l-20.109-26.074c.446-.645.71-1.424.71-2.266 0-2.206-1.794-4-4-4s-4 1.794-4 4c0 1.015.392 1.932 1.016 2.638l-20.689 30.606c-.417-.148-.859-.244-1.327-.244-2.206 0-4 1.794-4 4s1.794 4 4 4c1.258 0 2.369-.595 3.103-1.506l21.958 9.906c-.03.197-.061.394-.061.6 0 2.206 1.794 4 4 4s4-1.794 4-4c0-.629-.159-1.216-.418-1.745l15.129-12.983c.65.455 1.437.728 2.289.728 2.206 0 4-1.794 4-4s-1.794-4-4-4zm-20.076 18.118-3.844-42.285c.24-.068.47-.155.69-.264l20.063 26.015c-.397.519-.667 1.133-.772 1.807l-15.437 1.545c-.55.055-.95.545-.896 1.095.053.524.511.946 1.095.896l15.437-1.545c.046.125.099.245.157.364l-15.128 12.983c-.406-.286-.868-.492-1.365-.611zm-4.924-48.118c1.103 0 2 .897 2 2s-.897 2-2 2c-1.093 0-2-.889-2-2 0-1.103.897-2 2-2zm-25 41c-1.103 0-2-.897-2-2s.897-2 2-2 2 .897 2 2-.897 2-2 2zm3.932-1.326c.004-.022.003-.044.007-.066l20.524-2.046c.549-.055.95-.545.896-1.095-.055-.549-.532-.942-1.095-.896l-20.524 2.046c-.173-.467-.431-.889-.755-1.256l20.689-30.606c.132.047.265.092.403.125l3.844 42.285c-.833.236-1.552.729-2.069 1.396zm25.068 14.326c-1.103 0-2-.897-2-2s.897-2 2-2 2 .897 2 2-.897 2-2 2zm21-18c-1.103 0-2-.897-2-2s.897-2 2-2 2 .897 2 2-.897 2-2 2z" fill="#000000" style="fill: rgb(253, 71, 183);"></path></svg>